# xmcd
#
# Track frame offsets:
#	150
#	14413
#	32454
#	48947
#	69095
#	86661
#	99852
#	114394
#	132453
#	148915
#	169029
#	186598
#
# Disc length: 2663 seconds
#
# Revision: 1
# Processed by: cddbd v1.5.1PL2 Copyright (c) Steve Scherf et al.
# Submitted via: audiograbber 1.83.01
#
DISCID=9d0a650c
DTITLE=Various Artist - Cb20172
DYEAR=1900
DGENRE=Karaoke
TTITLE0=Brooks and Dunn - Goin' Under Gettin' Over You
TTITLE1=Walker, Tamara - Askin' Too Much
TTITLE2=Travis, Randy - Where Can I Surrender
TTITLE3=Alabama - Twentieth Century
TTITLE4=Redmon and Vale - In The Name Of Love
TTITLE5=Gary Allen - Runaway
TTITLE6=Brooks and Dunn - Goin' Under Gettin' Over You
TTITLE7=Walker, Tamara - Askin' Too Much
TTITLE8=Travis, Randy - Where Can I Surrender
TTITLE9=Alabama - Twentieth Century
TTITLE10=Redmon and Vale - In The Name Of Love
TTITLE11=Gary Allen - Runaway
EXTD=
EXTT0=
EXTT1=
EXTT2=
EXTT3=
EXTT4=
EXTT5=
EXTT6=
EXTT7=
EXTT8=
EXTT9=
EXTT10=
EXTT11=
PLAYORDER=
